<svg xmlns="http://www.w3.org/2000/svg" width="1200" height="260" viewBox="0 0 1200 260">
  <defs>
    <linearGradient id="bg" x1="0" y1="0" x2="1200" y2="260" gradientUnits="userSpaceOnUse">
      <stop offset="0" stop-color="#0B0D16"/>
      <stop offset="1" stop-color="#171C30"/>
    </linearGradient>
    <linearGradient id="tile" x1="0" y1="0" x2="108" y2="108" gradientUnits="userSpaceOnUse">
      <stop offset="0" stop-color="#0B0D16"/>
      <stop offset="1" stop-color="#171C30"/>
    </linearGradient>
    <linearGradient id="accent" x1="0" y1="0" x2="1" y2="1">
      <stop offset="0" stop-color="#D0BCFF"/>
      <stop offset="1" stop-color="#8E6FF0"/>
    </linearGradient>
  </defs>

  <rect width="1200" height="260" rx="20" fill="url(#bg)"/>

  <g transform="translate(90, 66)">
    <rect width="128" height="128" rx="28" fill="url(#tile)" stroke="#2A3151" stroke-width="1.5"/>
    <g transform="translate(28, 28) scale(3.2)">
      <path fill="#D0BCFF" d="M20,19.59 V8.0 l-6.0,-6.0 H6.0 c-1.1,0.0 -1.99,0.9 -1.99,2.0 L4.0,20.0 c0.0,1.1 0.89,2.0 1.99,2.0 H18.0 c0.45,0.0 0.85,-0.15 1.19,-0.4 l-4.43,-4.43 c-0.8,0.52 -1.74,0.83 -2.76,0.83 c-2.76,0.0 -5.0,-2.24 -5.0,-5.0 s2.24,-5.0 5.0,-5.0 s5.0,2.24 5.0,5.0 c0.0,1.02 -0.31,1.96 -0.83,2.75 L20,19.59 Z M9.0,13.0 c0.0,1.66 1.34,3.0 3.0,3.0 s3.0,-1.34 3.0,-3.0 s-1.34,-3.0 -3.0,-3.0 s-3.0,1.34 -3.0,3.0 Z"/>
    </g>
  </g>

  <text x="260" y="128" font-family="Segoe UI, -apple-system, Helvetica, Arial, sans-serif" font-size="56" font-weight="700" fill="#F8FAFC">SeekMyDocs</text>
  <text x="262" y="164" font-family="Segoe UI, -apple-system, Helvetica, Arial, sans-serif" font-size="20" fill="#94A3B8">Offline, privacy-first document search for Android</text>

  <text x="262" y="200" font-family="Segoe UI, -apple-system, Helvetica, Arial, sans-serif" font-size="15" font-weight="600" fill="url(#accent)" letter-spacing="2">OFFLINE &#8226; ON-DEVICE SEARCH &#8226; NO CLOUD</text>
</svg>
